<?xml version="1.0" encoding="UTF-8"?>
<svg id="_레이어_2" data-name="레이어 2" xmlns="http://www.w3.org/2000/svg" viewBox="0 0 499.89 648.48">
  <defs>
    <style>
      .cls-1 {
        fill: #fff;
      }
    </style>
  </defs>
  <g id="_레이어_1-2" data-name="레이어 1">
    <g>
      <path class="cls-1" d="M499.29,648.48c-.05-1.19-.16-2.37-.16-3.56-.02-213.2-.03-426.39-.03-639.59,0-1.78,.12-3.56,.18-5.34,.2,.1,.56,.19,.57,.3,.05,.79,.03,1.59,.03,2.38,0,214.37,0,428.75-.02,643.12,0,.89-.37,1.79-.57,2.68Z"/>
      <path class="cls-1" d="M121.96,125.72c-.92,.67-1.6,1.21-2.32,1.68-6.51,4.27-13.45,8.02-19.47,12.91-11.96,9.71-23.51,19.93-32.6,32.58-3.69,5.13-8.09,9.77-11.53,15.05-11.26,17.29-19.25,36.04-25.21,55.83-5.68,18.87-7.59,38.12-7.33,57.59,.22,16.87,2.02,33.71,7.32,49.83,3.24,9.84,7.17,19.52,11.63,28.88,4.37,9.17,9.8,17.84,14.78,26.73,.34,.6,.68,1.49,1.2,1.64,1.24,.37,2.63,.64,3.86,.41,.39-.07,.83-1.93,.61-2.81-.36-1.39-1-2.88-1.97-3.91-5.4-5.74-8.65-12.74-11.85-19.76-3.13-6.84-6.24-13.7-9.14-20.64-5.47-13.09-8.46-26.83-9.72-40.89-.82-9.17-1.33-18.41-1.13-27.61,.32-15.28,2.28-30.39,6.33-45.21,4.22-15.46,10.23-30.14,17.74-44.28,5.69-10.71,12.65-20.51,20.31-29.87,6.03-7.37,12.54-14.2,19.83-20.35,9.07-7.64,17.94-15.51,28.83-20.58,1.59-.74,3.05-1.77,4.65-2.5,4.94-2.23,5.29-2.11,9.12,2.02,.66,.71,1.41,1.33,2.38,2.25-2.88,1.66-5.6,3.17-8.26,4.77-3.79,2.29-7.69,4.45-11.27,7.04-6,4.34-12.13,8.6-17.6,13.56-10.72,9.7-20.38,20.43-27.89,32.9-4.49,7.45-9.18,14.81-13.13,22.54-9.25,18.1-14.75,37.35-16.79,57.61-1.79,17.77-1.44,35.44,1.24,53.1,2.42,15.94,7.34,30.96,15.24,45.05,4.2,7.5,7.45,15.54,13.12,22.17,.44,.52,.74,1.17,1.22,1.65,5.03,5.04,10.1,10.05,15.12,15.1,8.46,8.49,17.54,16.24,27.59,22.8,5.36,3.5,10.66,7.16,16.33,10.1,7.08,3.66,14.47,6.74,21.8,9.91,15.61,6.77,32.25,7.55,48.9,8.2,15.02,.59,29.72-1.73,44.03-5.92,9.07-2.66,17.88-6.37,26.53-10.23,5.56-2.48,10.96-5.62,15.84-9.26,8.85-6.6,17.41-13.62,25.79-20.82,5.22-4.48,9.88-9.61,14.78-14.47,8.41-8.34,15.94-17.3,20.15-28.62,3.93-10.57,8.77-20.88,11.71-31.71,5.24-19.28,6.04-39.1,4.72-59.04-1.3-19.62-6.06-38.27-13.85-56.29-4.66-10.77-10.18-20.97-16.67-30.73-7.59-11.41-15.88-22.16-26.26-31.21-7.97-6.96-16.04-13.72-25.26-19.05-5-2.89-9.64-6.4-14.44-9.62,2.84-5.07,7.32-6.56,12.31-3.86,4.07,2.2,8.1,4.55,11.89,7.2,6.07,4.25,12.25,8.44,17.8,13.31,7.84,6.89,15.71,13.8,21.86,22.41,2.93,4.1,6.29,7.88,9.42,11.83,9.31,11.73,16.01,24.9,21.78,38.67,5,11.94,9.05,24.14,11.53,36.81,3.23,16.51,4.55,33.24,2.97,50.02-1.06,11.21-2.34,22.47-4.57,33.49-1.64,8.09-4.53,16.02-7.69,23.68-3.74,9.03-8.25,17.75-12.68,26.48-1.87,3.68-4.42,7.01-6.56,10.57-.7,1.17-1.35,2.5,.44,3.57,1.8,1.07,3.11,.43,4.03-1.08,2.16-3.54,4.26-7.13,6.24-10.78,2.59-4.77,5.05-9.61,7.56-14.43,7.76-14.95,13.38-30.63,16.03-47.3,3.18-20.05,4.14-40.11,1.79-60.41-2.45-21.2-8.07-41.32-17.17-60.58-6.72-14.2-14.84-27.46-24.62-39.77-7.03-8.85-14.48-17.3-23.05-24.62-6.07-5.19-12.57-9.89-19.05-14.57-4.24-3.05-8.81-5.65-13.21-8.48-.81-.52-1.51-1.19-2.25-1.79,3.65-5.05,7.82-5.67,12.47-2.24,1.58,1.17,3.56,1.8,5.15,2.95,6.9,4.96,14.05,9.64,20.48,15.16,7.1,6.1,13.98,12.58,20.11,19.64,11.45,13.16,21.03,27.65,29.03,43.22,6,11.7,10.67,23.87,14.47,36.4,4.18,13.79,7.06,27.82,7.93,42.24,.88,14.78,1.15,29.55-.72,44.27-1.95,15.36-5,30.45-10.7,44.96-5.58,14.23-11.8,28.09-19.82,41.13-6.7,10.89-13.7,21.58-22.73,30.69-6.1,6.15-12.43,12.12-19.01,17.75-5.08,4.34-10.56,8.28-16.18,11.91-5.94,3.84-12.05,7.52-18.44,10.52-8.02,3.77-16.28,7.07-24.63,10.05-26.54,9.46-53.97,11.16-81.72,8-9.89-1.13-19.79-3.19-29.35-5.97-8.68-2.52-17.28-5.91-25.24-10.18-11.02-5.92-21.53-12.82-32.01-19.67-8.47-5.54-15.88-12.52-22.46-20.12-8.2-9.47-16.21-19.23-23.13-29.64-12.39-18.63-21.86-38.87-28-60.39-3.08-10.8-5.31-22.05-6.13-33.24-1.08-14.59-1.22-29.37-.24-43.97,1.17-17.41,5.13-34.37,11.42-50.84,5.86-15.34,12.81-29.97,21.75-43.75,6.75-10.41,14.09-20.23,22.74-29.15,7.38-7.6,14.63-15.25,23.51-21.18,5.82-3.88,11.34-8.21,17.07-12.22,3.19-2.23,3.84-1.96,6.36,1,1.12,1.31,2.6,2.32,4.28,3.79Zm-13.39,324.82c-.47-1.68-.8-2.56-.95-3.46-.44-2.83-.82-5.67-1.22-8.5-.3-2.15-1.31-3.67-4.01-4.21-3.14,5.39-6.34,10.86-9.58,16.41,1.35,.82,2.52,1.53,3.67,2.23,1.86-2.73,3.65-5.35,5.43-7.98,.97,3.82,1.36,7.42,1.6,11.03,.15,2.26,.96,3.75,3.85,3.99,3.33-4.87,6.76-9.87,10.33-15.09-1.2-1.02-2.44-2.09-3.88-3.33-1.69,2.87-3.25,5.52-5.24,8.91Zm-12.8-17.6c-.02-7.32-4.54-12.43-11-12.44-5.46-.01-8.93,3.55-8.95,9.2-.03,7.76,3.28,11.65,9.87,11.59,6.38-.05,10.09-3.13,10.08-8.35Zm55,39.12c.79,1.34,1.1,1.79,1.34,2.28,1.77,3.54,3.47,7.12,5.35,10.6,.39,.72,1.39,1.29,2.22,1.5,.35,.09,1.27-.82,1.44-1.42,1.63-5.68,3.16-11.38,4.79-17.33-1.4-.49-2.64-.92-4.18-1.45-.78,3.71-1.48,7.07-2.36,11.27-2.24-4.88-3.95-8.97-6.01-12.88-.57-1.08-2.12-1.72-3.34-2.33-.22-.11-1.31,.81-1.47,1.4-1.64,6.09-3.16,12.21-4.76,18.49,2.86,.21,4.84-.13,5-3.66,.08-1.88,1.1-3.72,1.98-6.46Zm163.77-30.39c-1.15,0-1.92,.13-2.63-.02-2.51-.54-4.97-1.29-7.5-1.72-1.12-.19-2.75-.18-3.39,.48-.57,.59-.52,2.42-.03,3.31,2.79,5.05,5.79,9.99,8.9,15.27,1.47-.95,2.56-1.65,3.72-2.4-2.11-3.1-4.01-5.88-6.43-9.43,3.54,.18,6.15,.29,8.77,.45,2.53,.16,5.18,1.87,7.69-.72-3.81-5.41-7.6-10.78-11.39-16.16-3.39,1.97-3.57,2.61-1.48,5.61,1.17,1.68,2.37,3.35,3.77,5.32Zm-59.74,21.87c.29,1.31,.4,2.41,.79,3.4,1.7,4.32,3.45,8.63,5.23,12.92,1.25,3,2.14,3.16,4.9,1.06-.62-1.58-1.24-3.14-1.86-4.7,.28-.28,.55-.56,.83-.84,1.68,.83,3.51,1.46,5.02,2.54,1.91,1.35,3.55,1.26,5.7-.17-1.08-1.02-2.05-1.83-2.88-2.76-.9-1.01-1.66-2.14-2.69-3.48-.03,.07,.21-.46,.48-.98,1.44-2.7,.92-5.38-.93-7.44-1.92-2.13-4.51-3.13-7.54-1.94-2.2,.86-4.47,1.53-7.05,2.4Zm80.76-43.15c-5.26,2.75-7.06,6.15-4.51,8.25,1.14-.99,2.29-1.98,3.86-3.34,.18,3.34-1.42,5.24-3.5,6.16-1.29,.57-3.48,.14-4.82-.63-1.88-1.09-2.49-3.09-1.95-5.45,.56-2.46,2.44-3.32,4.22-4.61,1.03-.74,1.29-2.56,1.9-3.89-.84-.22-1.81-.84-2.5-.61-6.29,2.07-9.5,9.96-6.84,16.09,1.39,3.21,3.68,4.68,7.04,4.96,4.97,.42,10.46-3.45,11.87-8.53,.12-.43,.09-1.04-.13-1.4-1.47-2.31-3.01-4.58-4.62-7Zm-50.15,42.71c-.38,.27-.76,.53-1.14,.8-1.32-.91-2.75-1.7-3.94-2.76-1.17-1.04-1.93-2.63-3.21-3.46-1.04-.67-2.57-.58-3.88-.82-.04,1.12-.52,2.52-.03,3.32,2.61,4.27,5.39,8.44,8.29,12.52,.53,.74,1.9,.88,2.89,1.29-.15-.96-.29-1.92-.47-2.88-.24-1.33-.51-2.66-.77-3.99,1.52,.36,3.06,.63,4.53,1.13,.71,.24,1.2,1.12,1.91,1.36,.93,.31,1.98,.28,3.69,.49-2.19-5.75-4.02-10.64-5.92-15.49-.7-1.79-1.5-4.49-3.8-3.58-2.45,.97-.67,3.38-.18,5.15,.63,2.31,1.35,4.61,2.03,6.91Zm-54.68,6.17c-4.39,.53-8.82,1.07-13.35,1.62,.92,6.82,1.81,13.46,2.72,20.23,4.27-.47,8.64-.95,12.83-1.41v-4.21c-2.72,.37-5.16,.85-7.61,.93-.71,.02-2.04-1.07-2.06-1.68-.02-.84,.76-1.98,1.53-2.48,.85-.55,2.17-.35,3.11-.81,.71-.35,1.15-1.23,1.71-1.87-.75-.44-1.48-1.22-2.25-1.25-1.52-.05-3.06,.31-4.56,.5q-.8-3.89,2.7-4.29c4.86-.57,6.12-1.76,5.22-5.28Zm-45.57,.72c-4.56-.48-8.94-.94-13.31-1.39-.67,6.82-1.3,13.28-1.94,19.86,3.96,.59,7.76,1.14,11.56,1.73,1.82,.28,2.21-.74,2.27-2.24,.07-1.52-.53-2.07-2.1-2.06-1.86,0-3.78-.12-5.54-.63-.73-.21-1.12-1.56-1.67-2.4,.77-.42,1.49-1.01,2.31-1.2,.84-.2,1.77-.01,2.66,.02,2.42,.1,3.28-.9,2.4-3.11-1.77-.37-3.47-.52-4.98-1.14-.64-.27-1.28-1.6-1.16-2.32,.11-.65,1.2-1.49,1.96-1.6,1.45-.2,2.96,.05,4.44,.12,2.31,.1,3.63-.74,3.1-3.64Zm58.15,12.96c1.47-.24,2.65-.36,3.8-.64,2.47-.59,4.76-1.06,5.33,2.54,.04,.26,2.2,.4,3.28,.16,.3-.07,.67-2.05,.26-2.62-3.22-4.49-6.67-8.82-9.96-13.26-1.27-1.72-2.71-2.09-4.38-1.34-1.28,7.14-2.53,14.09-3.86,21.49,2.09-.73,3.8-1.33,5.53-1.94v-4.39Zm-128.95-17.09c4.66,2.7,8.73,5.05,12.99,7.51,.71-1.45,1.25-2.57,1.89-3.89-2.06-1.35-3.93-2.62-5.85-3.82-2.11-1.31-3.04-2.7-1.44-5.21,1.58-2.48,2.86-5.2,3.93-7.94,.32-.81-.22-2.39-.9-3.07-1.26-1.27-2.25-.33-2.92,1-1.64,3.26-3.33,6.5-4.97,9.76-.91,1.82-1.77,3.67-2.73,5.67Zm86.87,25.44h12.4c-.11-1.78-.2-3.19-.3-4.66-2.14,.19-3.92,.29-5.67,.51-2.31,.29-3.12-.61-3.15-2.98-.04-4.13-.44-8.26-.7-12.47h-3.89c.44,6.66,.88,13.16,1.31,19.6Zm92.51-45.96c-3.91,1.68-4.09,2.53-2.14,5.71,2.57,4.2,5.01,8.48,7.34,12.82,.82,1.53,1.46,3.03,3.45,1.93,2.15-1.19,1.09-2.78,.24-4.28-1.31-2.31-2.6-4.63-3.87-6.95-1.69-3.08-3.36-6.17-5.02-9.22Zm-150.56,14.71c-1.1-.46-2.24-.94-3.69-1.55-2.43,6.35-4.78,12.46-7.15,18.64,5.01,1.23,4.96,1.11,6.11-2.87,1.34-4.64,3.03-9.18,4.72-14.22Z"/>
      <path class="cls-1" d="M299.16,106.99c3.33,1.99,6.26,3.73,9.17,5.48,2.21,1.33,4.42,2.65,6.61,4.02,11.13,6.98,20.74,15.85,30.11,24.91,5.79,5.61,11.04,11.88,15.91,18.33,10.26,13.59,19.8,27.69,26.6,43.43,3.53,8.18,7.34,16.27,10.31,24.66,5.26,14.89,8.67,30.28,10.37,46,1.59,14.62,2.03,29.29,.78,43.97-1.49,17.65-4.81,34.92-10.5,51.73-6.29,18.57-14.62,36.16-25.18,52.66-3.99,6.23-8.54,12.1-12.73,18.22-6.29,9.19-14.13,17-21.88,24.9-.69,.7-1.49,1.31-2.28,1.91-6.97,5.2-13.82,10.59-20.99,15.5-5.44,3.73-11.15,7.12-17.01,10.16-7.08,3.68-14.46,6.76-21.65,10.22-11.91,5.74-24.85,7.8-37.54,10.75-20.9,4.86-42,4.16-62.9,.99-12.85-1.95-25.5-5.74-37.95-9.62-7.68-2.39-14.92-6.3-22.16-9.94-5.64-2.84-11.22-5.94-16.36-9.59-8.93-6.34-17.85-12.78-26.14-19.92-10.28-8.86-18.9-19.42-26.83-30.4-6.59-9.13-12.82-18.58-18.43-28.34-12.69-22.08-21.26-45.83-25.5-70.92-3.47-20.51-3.83-41.22-1.6-61.96,2.23-20.66,7.87-40.36,15.57-59.61,5.66-14.14,12.78-27.41,21.16-40.08,7.26-10.98,14.86-21.63,24.31-30.95,7.19-7.09,14.41-14.07,22.65-19.94,6.42-4.58,12.69-9.36,19.04-14.02,.84-.62,1.77-1.11,2.73-1.7,1.95,6.43,1.51,7.09-3.31,10.68-9.09,6.78-18.36,13.4-26.86,20.88-7.17,6.31-13.91,13.3-19.87,20.76-9.95,12.45-18.63,25.86-25.73,40.17-10.75,21.69-18.8,44.43-21.7,68.51-1.67,13.92-1.58,28.1-1.57,42.17,0,16.46,3.28,32.47,8.04,48.22,5.3,17.55,12.62,34.15,22.04,49.87,7.19,11.99,15.03,23.48,24.12,34.13,5.79,6.78,12.02,13.02,18.73,18.91,9.35,8.2,19.6,14.97,30.34,21.07,6.08,3.45,12.41,6.48,18.55,9.83,9.93,5.42,20.88,7.68,31.6,10.84,19.65,5.78,39.62,6.54,59.75,5.08,8.66-.63,17.36-2.09,25.81-4.13,9.78-2.36,19.47-5.32,28.89-8.84,7.93-2.96,15.77-6.54,23.04-10.86,9.22-5.49,18.26-11.49,26.6-18.22,11.46-9.24,21.81-19.79,30.91-31.43,9.72-12.45,17.41-26.19,24.41-40.28,6.09-12.26,11.32-24.97,14.59-38.25,2.6-10.55,4.42-21.37,5.53-32.18,1.12-10.82,1.3-21.77,1.22-32.66-.11-15.2-2.25-30.19-6.01-44.96-3.82-15.04-8.8-29.64-16.16-43.31-5.34-9.91-10.95-19.7-17-29.19-7.31-11.46-16.25-21.61-26.12-31-7.61-7.25-15.54-14.02-24.25-19.88-3.43-2.31-6.66-4.97-10.29-6.91-4.06-2.18-3.98-5.35-3.03-9.84Z"/>
      <path class="cls-1" d="M202.16,249.63c-2.92-2.01-5.56-3.7-8.07-5.57-5.83-4.36-12.66-5.53-19.59-5.67-9.23-.19-18.07,1.86-26.86,4.95-8.36,2.94-17.17,4.57-25.8,6.73-.73,.18-1.54,.02-2.42,.02,2.93-10.02,5.74-19.88,8.71-29.69,2.38-7.86,5.02-15.64,7.43-23.49,.6-1.96,1.46-2.74,3.67-2.93,2.97-.25,5.9-1.26,8.81-2.09,10.07-2.88,20.03-6.28,30.22-8.6,8.44-1.92,15.77,1.54,21.89,7.41,.83,.79,1.53,2.17,1.55,3.28,.29,17.94,.45,35.88,.64,53.82,0,.48-.09,.96-.18,1.83Zm-9.65-16.08c.32-.18,.64-.37,.95-.55-.64-.93-1.07-2.18-1.95-2.73-4.57-2.88-9.69-3.84-15.02-3.95-14.34-.28-27.58,4.4-40.8,9.12-.43,.16-.93,1.07-.84,1.5,.09,.42,.94,.99,1.41,.96,1.07-.08,2.12-.45,3.17-.76,7.74-2.32,15.37-5.18,23.25-6.84,10.15-2.14,20.39-2.43,29.82,3.24Zm.83-21.58c.15-.33,.3-.66,.45-.98-.9-.64-1.75-1.39-2.72-1.89-7.27-3.8-15.12-4.35-22.87-2.66-9.31,2.03-18.42,4.93-27.59,7.55-.59,.17-.91,1.24-1.36,1.9,.64,.28,1.27,.75,1.93,.79,.65,.04,1.32-.34,1.98-.54,6.89-2.05,13.74-4.26,20.67-6.12,8.82-2.37,17.61-2.38,26.21,1.2,1.03,.43,2.19,.51,3.29,.76Zm-.17,9.91c.16-.56,.31-1.11,.47-1.67-3.25-1.15-6.42-2.81-9.78-3.36-15.96-2.63-30.71,2.14-45.24,7.94-.54,.22-.84,1.05-1.25,1.6,.16,.26,.33,.53,.49,.79,4.5-1.33,8.98-2.71,13.5-3.96,4.64-1.29,9.25-2.86,13.98-3.56,4.67-.69,9.51-.88,14.2-.49,4.58,.38,9.09,1.77,13.62,2.72Zm-51.39-17.38c.23,.41,.45,.82,.68,1.23,1.79-.41,3.61-.72,5.37-1.24,6.61-1.94,13.1-4.37,19.81-5.8,7.78-1.65,15.71-1.92,23.38,1.16,.54,.22,1.37-.27,2.06-.43-.33-.62-.54-1.66-1.01-1.8-3.77-1.07-7.54-2.46-11.39-2.83-12.32-1.19-23.56,3.34-34.85,7.32-1.45,.51-2.7,1.57-4.05,2.38Z"/>
      <path class="cls-1" d="M290.5,250.42c-4.45-.79-9-1.25-13.33-2.45-5.77-1.59-11.35-3.88-17.07-5.66-12.67-3.94-25.57-6.35-38.45-1.51-5.12,1.92-9.63,5.49-14.49,8.35,.08,.23-.13-.09-.13-.41,.09-17.94,.25-35.88,.25-53.82,0-2.59,.87-4.22,2.9-5.69,8.01-5.79,16.7-7.36,26.2-4.66,8.38,2.38,16.75,4.8,25.17,7.03,3.77,1,7.68,1.49,11.48,2.4,.71,.17,1.53,1.15,1.75,1.91,1.5,5.34,2.76,10.74,4.28,16.07,3.04,10.66,6.14,21.3,9.33,31.92,.59,1.95,1.68,3.75,2.54,5.62-.14,.3-.29,.59-.43,.89Zm-73.53-17.45c1.66-.69,3.21-1.72,4.86-1.94,5.16-.69,10.39-1.65,15.54-1.43,8.38,.36,16.59,1.99,24.46,5.29,3.92,1.64,8.28,2.24,12.44,3.31,.21-.34,.41-.68,.62-1.02-.51-.61-.91-1.51-1.56-1.77-3.27-1.31-6.53-2.82-9.95-3.58-8.96-2.01-17.94-4-27.02-5.35-6.14-.91-12.22,.51-17.96,3.02-1.7,.74-2.65,1.71-1.45,3.47Zm-.48-32.52c7.83-3.13,15.74-3.55,23.73-1.76,8.47,1.9,16.87,4.08,25.33,6.02,.76,.17,1.72-.54,2.58-.85-.58-.73-1.04-1.93-1.77-2.12-7.56-1.98-15.11-4.05-22.76-5.61-8.41-1.71-16.89-2.11-25.28,.46-1.88,.58-3.05,1.43-1.83,3.85Zm-.21,20.52c.25,.33,.5,.66,.75,.99,.55-.12,1.12-.17,1.63-.38,6.71-2.67,13.64-3.08,20.74-2.12,8.03,1.09,15.95,2.57,23.62,5.3,2.69,.96,5.55,1.43,8.36,1.98,.52,.1,1.16-.45,1.75-.71-.38-.47-.67-1.17-1.17-1.37-2.81-1.12-5.6-2.47-8.53-3.1-8.88-1.91-17.79-3.81-26.77-5.14-5.92-.88-11.87,.09-17.46,2.44-1.08,.45-1.96,1.39-2.92,2.1Zm53.97-4.44c.2-.45,.39-.89,.59-1.34-2.22-1.25-4.31-3.12-6.69-3.64-9.35-2.05-18.77-3.86-28.22-5.37-5.3-.84-10.71-.51-15.74,1.74-1.62,.73-3,2.02-4.48,3.05,.2,.35,.39,.7,.59,1.04,.8-.2,1.69-.25,2.4-.62,5.23-2.73,10.83-3.06,16.5-2.33,10.28,1.31,20.51,2.9,30.39,6.22,1.52,.51,3.11,.84,4.66,1.26Z"/>
      <path class="cls-1" d="M260.43,129.93c3.62,4.34,4.48,8.77,4.55,13.55,.03,1.64,1.07,3.35,1.91,4.89,2.75,5.08,5.39,10.22,5.2,16.19-.23,7.02-2.97,10.38-10.07,10.13-8.94-.32-14.39-5.66-18.96-12.46-.48-.72-.82-1.54-1.31-2.46-2.9,1.55-5.5,3.49-8.41,4.38-7.55,2.31-15.16,4.57-22.89,6.07-8.88,1.72-17.49-.91-26.06-3.06-9.06-2.27-16.63-7.62-24.7-11.91-3.16-1.68-4.28-4.88-4.33-8.29-.04-3.06,.2-6.14,.51-9.2,.42-4.07,.03-5.01-3.89-6.58-5.69-2.28-11.52-4.25-17.13-6.71-5.02-2.2-9.78-5.02-14.76-7.34-6.06-2.82-4.89-13.54,.19-16.65,1.43-.88,2.95-1.62,4.5-2.29,11.69-5.06,23.41-10.04,35.08-15.13,7.96-3.47,15.87-7.1,23.8-10.64,5.94-2.65,11.83-5.42,17.86-7.84,1.47-.59,3.6-.56,5.08,.04,12.81,5.24,25.57,10.61,38.29,16.08,7.44,3.2,14.76,6.66,22.14,9.99,5.66,2.55,11.28,5.21,17.01,7.59,4.7,1.95,7.62,5.59,9.8,9.87,1.81,3.54,.27,7.5-3.34,9.26-1.42,.69-2.97,1.11-4.42,1.72-8.34,3.5-16.68,7.03-25.64,10.81Zm4.33,36.89c.41-.6,1.56-1.53,1.46-2.27-.47-3.17-.77-6.55-2.14-9.37-2.47-5.11-6.56-9.58-4.87-15.97,.16-.6-.62-2.02-1.13-2.11-3.27-.61-2.88-3-2.89-5.3-.01-1.68-.29-3.36-.22-5.04,.03-.7,.46-1.72,1.01-2.02,2.6-1.37,5.27-2.62,7.98-3.77,6.2-2.63,12.46-5.14,18.65-7.79,1.13-.49,2.1-1.39,3.09-2.17,1.66-1.3,1.3-2.64-.29-3.55-4.68-2.7-9.34-5.47-14.19-7.84-6.37-3.1-12.9-5.87-19.39-8.72-9.59-4.2-19.22-8.3-28.8-12.5-5.68-2.49-11.28-5.17-17-7.54-1.17-.48-2.9-.32-4.12,.17-2.16,.87-4.05,2.38-6.18,3.35-6.11,2.77-12.28,5.39-18.42,8.09-14.03,6.18-28.07,12.32-42.05,18.58-3.95,1.77-7.74,3.89-11.59,5.88-2.32,1.2-2.88,2.86-.53,4.45,2.57,1.75,5.25,3.45,8.09,4.66,8.72,3.72,17.54,7.18,26.31,10.78,1.28,.52,2.6,1.09,3.66,1.95,.68,.54,1.32,1.69,1.25,2.5-.38,4.64-1.16,9.26-1.41,13.9-.08,1.43,.68,3.32,1.72,4.32,4.72,4.55,10.51,7.3,16.78,9.08,2.96,.84,6.02,1.46,8.81,2.69,6.14,2.71,12.55,3.3,19.12,3.05,10.28-.39,19.59-4.42,28.98-8.02,1.78-.68,3.38-2.11,4.73-3.52,1.72-1.78,2.34-1.59,3.53,.62,2.34,4.32,4.98,8.52,7.84,12.51,1.26,1.75,3.32,3.05,5.43,.48,.31-.38,1.24-.4,1.86-.34,1.38,.13,2.74,.42,4.93,.78Z"/>
      <path class="cls-1" d="M92.29,325.73v14.25c3.09,0,6.13,0,9.17,0,5.55,0,11.12-.23,16.65,.1,3.57,.21,5.36-1.29,6.34-4.4,.41-1.3,.84-2.6,1.57-4.86,1.06,1.49,2.28,2.42,2.34,3.4,.37,6.83,.51,13.67,.7,20.5,.01,.37-.2,.75-.22,.84h-61.44c-1.39-4.28-1.09-5.39,2.48-7.13,3.39-1.65,5.02-3.95,4.98-7.9-.13-14.97-.03-29.95,.07-44.93,.02-2.75-1.15-4.53-3.51-5.65-.98-.47-2.35-.54-2.94-1.28-.86-1.07-1.31-2.55-1.59-3.92-.04-.21,1.78-1.16,2.75-1.15,16.75,.05,33.5,.26,50.25,.26,1.94,0,3.88-.98,6.08-1.58,.16,1.14,.39,2.19,.44,3.25,.32,6.04,.65,12.08,.84,18.13,.03,.89-.68,1.8-1.05,2.71-.9-.61-1.82-1.2-2.71-1.83-.15-.1-.21-.33-.29-.51-2.21-5.23-2.21-5.2-7.99-5.17-7.52,.03-15.04,0-22.75,0v12.61c6.68,0,13.18,.08,19.67-.12,.65-.02,1.2-1.81,1.89-2.71,.55-.72,1.24-1.33,1.87-1.99,.57,.74,1.61,1.47,1.63,2.22,.21,6.83,.28,13.66,.24,20.5,0,.72-.88,1.91-1.5,2.02-.62,.1-1.94-.8-2.04-1.42-.68-4.05-3.32-4.43-6.74-4.28-4.94,.22-9.89,.06-15.19,.06Z"/>
      <path class="cls-1" d="M146.36,283.76c9.48,0,18.68-.03,27.88,0,5.34,.02,10.74-.28,16.03,.29,18.01,1.96,27.29,23.06,17.2,38.17-5.23,7.84-12.84,10.1-21.4,10.62-4.93,.3-9.88,.05-15.27,.05,0,4.03-.09,7.97,.07,11.9,.03,.78,.88,1.73,1.61,2.23,1.22,.82,2.64,1.35,3.99,1.98,2.11,.97,2.56,2.91,2.02,4.73-.22,.72-2.13,1.31-3.29,1.33-6.94,.13-13.88,.04-20.82,.09-2.55,.02-5.1,.22-7.72,.35-.89-3.05-.47-5.15,2.42-6.62,3.01-1.53,4.45-3.86,4.39-7.63-.24-14.77-.21-29.56-.02-44.33,.05-3.85-1.39-6.38-4.71-7.74-2.76-1.13-3.1-2.9-2.39-5.42Zm24.42,34.86c3.64,0,7.37,0,11.11,0,.89,0,1.79,.03,2.66-.1,5.94-.84,8.87-4.5,9.02-10.32,.14-5.63-2.45-8.91-8.47-9.42-4.67-.39-9.39-.08-14.33-.08v19.92Z"/>
      <path class="cls-1" d="M331.21,310.74c-4.12-11.79-20.52-16.49-30.13-8.7-9.54,7.73-9.15,20.15-3.97,28.84,6.14,10.32,21.94,12.38,30.78,4.06,1.63-1.54,2.45-3.94,3.93-6.41,4.02,5.57,8.02,11.13,12.06,16.72-.35,.45-.53,.83-.83,1.05-12.93,9.42-26.93,13.88-42.67,8.3-21.87-7.75-29.23-31.31-22.64-48.89,4.52-12.06,12.97-19.39,25.58-22.4,4.99-1.19,9.87-2.32,14.82-1.06,4.17,1.06,8.14,2.93,12.19,4.47,1.08,.41,2.12,.96,3.42,1.56,.61-1.39,1.11-2.51,1.6-3.64,3.45,2.36,4.5,4.56,3.59,8.21-1.43,5.72-1.85,11.84-6.24,16.44-.46,.48-.95,.91-1.49,1.43Z"/>
      <path class="cls-1" d="M317.2,269.66c-3.2,0-5.85,.05-8.5,0-17.05-.34-34.11-.56-51.16-1.1-10.6-.33-21.18-1.12-31.77-1.78-2.02-.13-3.52,.4-5,1.84-4.84,4.73-10.49,7.45-17.51,7.28-5.94-.14-9.94-3.8-14.43-6.78-1.7-1.12-3.9-2.18-5.84-2.12-10.59,.32-21.17,1.16-31.76,1.52-16.45,.56-32.91,.86-49.36,1.28-1.68,.04-3.4-.06-5.03,.27-2.6,.53-3.06-.85-2.7-2.81,.38-2.04,.99-4.05,1.68-6.01,4.26-12.26,8.56-24.5,12.86-36.74,2.85-8.11,5.74-16.2,8.55-24.32,.96-2.78,2.15-5.05,5.59-5.25,2.35-.14,3.92-1.36,4.61-3.88,.81-3,2.65-5.42,5.87-6.16,10.95-2.52,21.91-4.99,32.9-7.33,1.63-.35,3.44,.17,5.17,.28l.04,.89c-.29,.22-.55,.55-.88,.65-8.94,2.85-17.87,5.76-26.86,8.44-2.25,.67-4.7,.82-7.07,.85-2.16,.03-3.27,1.04-3.92,2.89-.39,1.12-.92,2.22-1.14,3.37-.69,3.58-2.39,5.65-6.44,5.32-.84-.07-2.29,1.21-2.63,2.16-7.04,19.65-13.96,39.34-20.87,59.03-.38,1.09-.47,2.28-.68,3.37,18.52-.59,36.81-1.03,55.08-1.82,7.58-.33,15.13-1.54,22.71-2.11,4.75-.36,8.96,.98,12.92,4,8.55,6.52,16.48,6.65,25.13,.19,4.29-3.2,8.84-4.39,13.82-4.08,7.98,.5,15.92,1.74,23.9,2.11,13.56,.62,27.15,.84,40.73,1.16,4.44,.11,8.88,.02,13.62,.02-.24-1.12-.37-2.09-.66-2.99-3.82-11.66-7.57-23.35-11.54-34.96-2.66-7.77-5.74-15.4-8.44-23.15-.74-2.13-1.73-3.26-4.01-2.92-2.94,.44-4.48-.77-4.63-3.77-.02-.48-.34-.94-.39-1.43-.6-4.93-2.88-6.87-8.29-7.51-7.64-.91-15.04-3.8-22.55-5.83-3.73-1.01-7.47-1.99-11.19-3.01-.34-.09-.64-.34-1.65-.9,1.6-.46,2.55-.96,3.53-.98,2.27-.06,4.59-.17,6.81,.21,5.85,1.01,11.67,2.19,17.47,3.46,4.59,1.01,9.15,2.19,13.67,3.47,1.03,.29,2.06,1.16,2.73,2.05,.89,1.17,1.59,2.54,2.06,3.94,.97,2.88,2.68,4.61,5.81,5.13,3.34,.55,4.82,3.18,5.86,6.11,5.57,15.68,11.17,31.35,16.72,47.03,2.08,5.88,4.09,11.79,6.09,17.7,.37,1.1,.59,2.26,.97,3.72Z"/>
      <path class="cls-1" d="M258.29,282.12v5.83c-5.9,1.74-6.98,3.16-6.95,9.31,.08,14.97,.28,29.94,.24,44.91,0,3.07,.77,5.16,3.75,6.22,.64,.23,1.54,.59,1.71,1.1,.55,1.61,.9,3.32,1.05,5.01,.01,.15-2.01,.69-3.08,.7-9.11,.06-18.21,.03-27.35,.03-1.14-3.78-.86-4.76,2.52-6.95,2.5-1.62,3.73-3.51,3.71-6.77-.09-14.17,.06-28.35,.36-42.53,.11-5.01-.82-8.92-6.1-10.85-.8-.29-1.05-2.4-1.23-3.71-.03-.21,1.67-.94,2.58-.95,7.62-.08,15.24,.04,22.86-.1,1.87-.03,3.73-.76,5.94-1.25Z"/>
      <path class="cls-1" d="M193.79,558.98c.44-2.39,.55-4.89,1.38-7.13,1.32-3.59,0-5.94-2.74-7.99-1.1-.82-2.11-1.75-3.98-3.32,2.43-.93,4.17-2,6.02-2.23,3.01-.36,5.15-1.27,6.24-4.41,.58-1.66,2.08-2.99,3.51-4.95,1.35,2.07,2.71,3.5,3.27,5.19,.75,2.27,2.2,3.05,4.29,3.45,1.64,.31,3.27,.82,4.84,1.4,2.04,.75,2.33,2.01,.71,3.53-1.86,1.74-3.77,3.44-5.75,5.24,.55,3.55,1.12,7.24,1.84,11.93-3.82-1.89-6.89-3.41-9.91-4.89-2.89,1.57-5.93,3.22-8.97,4.87-.25-.23-.51-.45-.76-.68Z"/>
      <path class="cls-1" d="M199.12,257.35c-10.1-9.93-22.5-9.05-34.94-8.17-8.73,.62-16.71,3.76-24.68,7-7.19,2.92-14.73,2.32-22.18,2.71-.2-.34-.39-.67-.59-1.01,.87-.66,1.65-1.69,2.62-1.91,2.5-.59,5.17-.53,7.61-1.25,8.52-2.51,16.93-5.36,25.45-7.84,9.3-2.71,18.83-4.61,28.43-2.29,5.11,1.24,9.92,3.82,14.76,6.01,2.7,1.22,3.21,3.94,3.51,6.74Z"/>
      <path class="cls-1" d="M208.68,256.91c1.38-1.92,2.47-4.14,4.19-5.69,6.04-5.45,13.54-7.22,21.4-7.56,9.77-.42,19.03,2.3,28.24,5.07,8.86,2.66,17.39,6.5,26.77,7.3,.85,.07,1.61,1.21,2.41,1.86-.18,.43-.37,.87-.55,1.3-4.66-.51-9.44-.55-13.96-1.65-6.77-1.66-13.31-4.27-20.04-6.12-10.31-2.83-20.74-4.1-31.44-1.99-5.21,1.03-9.71,3.05-13.54,6.68-.73,.69-1.64,1.18-2.47,1.76-.34-.32-.68-.64-1.02-.97Z"/>
      <path class="cls-1" d="M283.7,207.42c.67,.67,1.6,1.21,1.96,2.02,1.68,3.8,3.37,7.6,4.74,11.51,4.06,11.57,7.98,23.19,11.93,34.8,.31,.91,.49,1.87,.72,2.77-3.83,1.55-4.32,1.41-5.39-2.01-4.75-15.18-9.46-30.38-14.15-45.58-.3-.98-.36-2.04-.53-3.06,.24-.15,.49-.29,.73-.44Z"/>
      <path class="cls-1" d="M283.84,374.79c0-2.32,0-4.28,0-6.25,.02-3.49,.21-3.63,4.12-2.74,0,5.05,.04,10.17-.05,15.3-.01,.62-.77,1.79-1.06,1.75-1.2-.16-2.65-.36-3.45-1.13-2.18-2.07-4.09-4.44-6.74-6.38,.14,1.63,.24,3.27,.44,4.9,.15,1.2,.58,2.5-1.29,2.64-1.64,.13-2.71-.51-2.71-2.32,0-4.85,0-9.7,0-14.9,6.16,.11,6.68,6.27,10.73,9.12Z"/>
      <path class="cls-1" d="M214.49,260.43c1.4-3.61,4.33-5.04,7.46-6.33,6.21-2.56,12.65-2.91,19.2-2.29,9.85,.93,19.35,3.28,28.53,6.91-.02,.25-.03,.51-.05,.76-.94-.07-1.89-.13-2.83-.22-11.31-1.08-22.62-2.24-33.94-3.22-5.76-.5-11.17,1-16.3,3.62-.65,.33-1.38,.52-2.08,.78Z"/>
      <path class="cls-1" d="M140.61,257.77c5.55-1.29,11.09-2.61,16.64-3.86,7.74-1.73,15.6-3.29,23.44-1.45,4.85,1.14,10.24,1.61,13.86,5.88,.37,.43,.61,.96,.93,1.47-.31,.14-.54,.33-.64,.28-10.83-5.53-22.26-4.43-33.72-3.13-6.75,.77-13.51,1.53-20.26,2.29l-.25-1.47Z"/>
      <path class="cls-1" d="M159.41,373.91v-8.22c2.65-.65,3.75,.1,3.7,2.69-.1,4.64-.03,9.27-.03,14.26-5.69,.25-5.96-6.59-10.55-7.33v6.99c-3.42,.97-3.76,.78-3.81-2.46-.07-4.55-.02-9.1-.02-14.02,5.15,.83,6.88,5.47,10.71,8.09Z"/>
      <path class="cls-1" d="M310.29,374.46c.25,3.01,.45,5.44,.66,7.89-3.85,1.15-4.62,.49-4.36-3.56,.21-3.25,.2-6.52,.41-9.77,.06-.97,.4-2.61,.9-2.73,1-.23,2.56,.01,3.23,.7,2.09,2.14,3.87,4.58,5.96,7.14,0-2.17-.16-4.29,.08-6.37,.09-.76,1.15-1.4,1.76-2.1,.46,.7,1.3,1.39,1.33,2.11,.2,4.44,.24,8.89,.26,13.34,0,.72-.36,1.43-.85,3.26-3.33-3.51-6.09-6.43-9.39-9.9Z"/>
      <path class="cls-1" d="M108.78,374.46v-8.16h3.73c0,4.97,.07,9.8-.03,14.63-.05,2.13-1.51,2.77-3.16,1.28-1.6-1.44-2.86-3.26-4.25-4.93-.75-.91-1.43-1.86-2.7-3.52v8.78c-2.67,.91-3.88,.41-3.83-2.31,.09-4.63,.03-9.27,.03-14.34,5.78,.28,6.56,5.92,10.21,8.56Z"/>
      <path class="cls-1" d="M127.47,207.62c-.75,2.25-1.38,4.04-1.96,5.85-3.6,11.3-7.17,22.6-10.8,33.89-1.03,3.2-2.14,6.38-3.29,9.53-.67,1.84-1.98,2.61-3.94,1.93,.21-7.21,16.21-49.04,19.98-51.21Z"/>
      <path class="cls-1" d="M336.91,379.04c-.97-2.27-1.67-3.91-2.37-5.56,.27-.36,.54-.72,.81-1.08,1.94,.53,4.67,.48,5.61,1.75,.92,1.24,.6,4.11-.2,5.76-1.26,2.6-4,3.45-6.88,3.01-3.69-.56-7.42-4.68-7.79-8.43-.57-5.82,5.05-10.21,10.55-8.21,1.18,.43,2.3,1.01,3.44,1.52,.04,.34,.08,.69,.12,1.03-1.54,.48-3.14,1.48-4.6,1.31-2.05-.24-3.95-1.19-4.71,1.69-.86,3.24,.31,6.2,2.83,6.97,.87,.27,1.86,.15,3.18,.22Z"/>
      <path class="cls-1" d="M189.09,399.75c-.18,2.28-.16,4.6-.58,6.84-1.96,10.52-3.98,21.03-6.14,31.51-.35,1.68-.14,4.75-3.1,4.04-2.79-.66-1.54-3.25-1.12-5.02,2.6-11.09,5.29-22.16,8.02-33.21,.38-1.53,1.14-2.97,1.73-4.45,.4,.09,.79,.19,1.19,.28Z"/>
      <path class="cls-1" d="M240.24,364.33c1.54,1.46,2.79,2.23,3.44,3.36,2.16,3.74,4.12,7.58,6.09,11.43,.3,.58,.38,1.39,.25,2.03-.2,.97-.68,1.89-1.04,2.83-.77-.62-1.96-1.09-2.25-1.89-1.49-4.11-4.82-2.24-7.45-2.71q-.7,3.34-5.27,3.79c1.31-6.43,4.18-12.08,6.23-18.84Z"/>
      <path class="cls-1" d="M220.37,378.69c1.33,0,2.67,0,4,0s2.54,0,3.98,0v4.18c-3.2,0-6.26,.11-9.31-.07-.82-.05-2.26-.95-2.28-1.5-.17-5.22-.1-10.45-.1-15.53h10.97c.35,2.9-.48,4.54-3.65,4.04-.19-.03-.42-.06-.59,0-1.19,.46-3.26-1.18-3.44,1.32-.02,.25,2.19,.87,3.39,.96,1.5,.12,3.09,.17,2.68,2.11-.18,.85-1.5,1.63-2.47,2.08-1.06,.5-2.32,.6-3.49,.87l.31,1.53Z"/>
      <path class="cls-1" d="M75.48,374.31c-.02-4.25,4.05-8.3,8.37-8.32,4.27-.02,8.21,3.98,8.28,8.41,.07,4.2-4.13,8.55-8.23,8.54-4.5-.02-8.39-4.01-8.42-8.62Zm12.99-.3c-.06-2.2-2.72-4.32-5.33-4.05-2.3,.24-3.91,1.42-3.98,3.96-.06,2.19,2.9,4.86,5.21,4.8,2.06-.05,4.16-2.47,4.1-4.71Z"/>
      <path class="cls-1" d="M254.48,366.05c2.47,0,4.62,.07,6.76-.02,2.59-.11,4.39,1.2,4.83,3.5,.32,1.7-.04,3.83-.84,5.37-.75,1.44-1.08,2.37-.05,3.67,.79,1.01,1.59,2.08,2.06,3.25,.24,.61-.23,1.5-.38,2.26-.72-.29-1.66-.39-2.12-.91-1.72-1.91-3.28-3.95-4.9-5.94-.32,.19-.64,.37-.96,.56,.15,1.32,.45,2.64,.4,3.95-.03,.76-.63,1.5-.97,2.25-.75-.38-1.63-.63-2.21-1.18-.45-.43-.71-1.23-.75-1.88-.32-4.92-.57-9.85-.85-14.87Zm4.44,3.31l-.89,.7c.29,1.22,.26,2.7,.97,3.58,.42,.53,2.1,.39,3.01,.03,.47-.18,.9-2.02,.64-2.23-1.1-.87-2.47-1.42-3.73-2.08Z"/>
      <path class="cls-1" d="M240.92,527.51c.42,.86,.95,1.68,1.23,2.59,.68,2.15,1.68,3.66,4.27,3.81,.77,.04,1.86,1.17,2.07,1.98,.15,.61-.71,1.9-1.42,2.22-2.27,1.02-3.02,2.48-2.65,4.95,.13,.89-.76,2.68-1.37,2.77-1.04,.15-2.24-.7-3.35-1.16-.89-.37-1.75-.79-2.06-1.43-1.2-1.8-2.48-3.55-3.57-5.42-.56-.97-.96-2.14-1-3.23-.01-.35,1.37-1.02,2.15-1.07,2.06-.13,2.91-1.19,3.3-3.11,.21-1.06,.96-2,1.47-3,.31,.03,.62,.06,.93,.09Z"/>
      <path class="cls-1" d="M172.63,542.98c-1.51,1.02-2.36,1.81-3.37,2.22-1.14,.46-2.46,.87-3.61,.7-.45-.07-.97-1.81-.91-2.75,.16-2.34-.38-3.9-2.78-4.89-2.03-.84-1.64-3.44,.8-4.39,2.24-.87,3.64-2.06,4.14-4.47,.15-.7,1.11-1.23,1.7-1.84,.53,.64,1.24,1.2,1.55,1.94,.95,2.25,1.36,4.69,4.77,4.77,1.69,.04,1.76,2.32,.65,2.88-2.99,1.5-3.27,3.9-2.94,5.83Z"/>
      <path class="cls-1" d="M187.16,177.52c.97-.22,2.01-.78,2.89-.6,3.82,.81,7.69,1.58,11.36,2.88,2.32,.82,4,.91,6.36-.17,3.54-1.63,7.48-2.41,11.29-3.36,.89-.22,1.98,.34,2.98,.53,.05,.27,.1,.54,.16,.81-.78,.42-1.52,.98-2.35,1.25-4.93,1.63-9.44,3.97-13.39,7.4-.59,.51-2.07,.57-2.82,.19-2.03-1.01-3.82-2.51-5.84-3.54-2.41-1.24-4.96-2.22-7.47-3.25-1.03-.42-2.13-.68-3.2-1.01,0-.38,.02-.76,.03-1.14Z"/>
      <path class="cls-1" d="M181.32,365.98c.66,3.49,.36,3.77-3.19,3.94-1.4,.06-2.78,.65-4.16,1,.8,2.53,2.82,.79,4.23,1.19,.37,.1,.78,.06,1.14,.09,1.25,3.66,.85,4.25-2.85,4.63-.77,.08-1.51,.52-2.26,.79,.06,.34,.12,.69,.18,1.03,1.21,0,2.44,.15,3.63-.03,3.14-.46,4.68,.71,4.33,4.21h-11.7v-16.83h10.66Z"/>
      <path class="cls-1" d="M173.95,399.71c-5.71,12.47-11.42,24.95-17.19,37.56-2.93-1.46-3.52-3.11-2.3-5.36,2.85-5.26,5.76-10.5,8.54-15.79,.67-1.29,.77-2.88,1.43-4.17,1.81-3.57,3.71-7.11,5.74-10.55,.61-1.03,1.79-1.73,2.71-2.59l1.08,.91Z"/>
      <path class="cls-1" d="M204.48,401.22c.24,1.68,.67,3.37,.69,5.06,.16,12.47,.25,24.95,.32,37.43,0,1.25,.14,3.01-1.79,2.59-.82-.17-1.94-1.69-1.92-2.57,.23-12.86,.62-25.72,1.03-38.58,.04-1.31,.52-2.6,.8-3.89,.29,0,.57-.02,.86-.03Z"/>
      <path class="cls-1" d="M221.17,404.11c.37,.89,.9,1.74,1.1,2.67,2.35,11.33,4.68,22.67,6.9,34.03,.15,.77-.68,1.73-1.05,2.6-.84-.61-2.25-1.08-2.43-1.84-1.15-5.01-2.12-10.07-2.97-15.14-1-6.04-1.87-12.11-2.67-18.18-.17-1.31,.21-2.68,.34-4.03,.26-.04,.52-.08,.78-.11Z"/>
      <path class="cls-1" d="M156.18,400.67c-1.21,1.55-2.31,3.03-3.49,4.45-5.4,6.52-10.75,13.07-16.27,19.49-1.06,1.23-2.12,3.99-4.3,2.37-2.24-1.67-.72-3.7,.81-5.28,5.21-5.37,10.5-10.66,15.61-16.12,1.64-1.75,2.75-3.99,4.27-5.86,.37-.45,1.44-.53,2.14-.44,.4,.05,.72,.78,1.23,1.4Z"/>
      <path class="cls-1" d="M250.94,437.17c-1.9-3.82-3.89-7.65-5.71-11.56-2.01-4.3-3.87-8.66-5.77-13-.35-.81-.81-1.68-.8-2.52,0-.76,.59-1.51,.92-2.26,.66,.42,1.6,.67,1.92,1.27,2.49,4.71,4.85,9.48,7.26,14.23,1.52,3,3.06,5.99,4.58,8.98,1.45,2.87,1.23,3.39-2.4,4.86Z"/>
      <path class="cls-1" d="M259.94,408.3c3.64-.48,5.12,2.08,6.89,3.88,3.24,3.31,6.29,6.8,9.36,10.27,.56,.63,1.25,1.58,1.14,2.25-.16,.93-.93,1.85-1.66,2.55-.24,.23-1.4,0-1.71-.38-4.48-5.37-8.9-10.78-13.29-16.23-.39-.48-.41-1.26-.73-2.34Z"/>
      <path class="cls-1" d="M199.36,382.39v-16.59h3.66v12.59h7.27c-.1,1.48-.18,2.7-.27,4.01h-10.67Z"/>
      <path class="cls-1" d="M99.58,223.44c-2.04-.64-4.04-1.41-6.11-1.88-5.59-1.26-11.22-2.32-16.78-3.66-.75-.18-1.21-1.57-1.8-2.4,.79-.31,1.65-1.03,2.34-.88,7.34,1.53,14.65,3.19,21.96,4.81,.39,.09,.91,.07,1.12,.31,.55,.64,1.28,1.37,1.34,2.11,.07,.91-.48,1.86-.76,2.79-.44-.4-.87-.8-1.31-1.2Z"/>
      <path class="cls-1" d="M86.3,238.66c-5.82,0-11.65,.01-17.47-.01-1.21,0-2.78,.41-2.77-1.67,0-2.08,1.58-1.65,2.79-1.65,7.41,0,14.82-.01,22.23,.12,.96,.02,1.91,.83,2.86,1.28-.96,.56-1.87,1.42-2.9,1.6-1.53,.27-3.15,.07-4.74,.07,0,.09,0,.17,0,.26Z"/>
      <path class="cls-1" d="M120.13,366.31c2.13-.62,3.09,.12,3.08,2.58-.01,3.13,.29,6.27,.46,9.34,2.55,.36,4.8,.52,6.91,1.13,.37,.11,.2,2.12,.28,3.4h-10.72v-16.44Z"/>
      <path class="cls-1" d="M346.76,258.41c-5.81-.6-11.41-1.21-17.02-1.75-2.06-.2-4.16-.12-6.19-.46-.64-.11-1.13-1.15-1.69-1.76,.77-.6,1.58-1.77,2.29-1.7,6.87,.61,13.72,1.51,20.59,2.14,2.38,.22,2.92,1.18,2.03,3.53Z"/>
      <path class="cls-1" d="M320.54,200.43c-5.83,2.75-11.67,5.51-17.68,8.34-1.07-1.86-1.03-3.33,1.19-4.46,3.93-2.01,7.78-4.17,11.69-6.21,3.33-1.74,3.59-1.6,4.8,2.33Z"/>
      <path class="cls-1" d="M131.42,177.54c-1.16-1.3-2.31-2.49-3.35-3.77-2.66-3.27-5.36-6.52-7.84-9.93-.54-.75-.71-2.55-.21-3.13,1.25-1.45,2.12-.04,2.98,.95,2.39,2.73,4.87,5.38,7.24,8.13,.95,1.1,1.78,2.33,2.54,3.58,1.02,1.68,.35,2.94-1.36,4.17Z"/>
      <path class="cls-1" d="M63.83,258.49c-.29-.26-.86-.76-1.44-1.27,.65-.57,1.25-1.54,1.97-1.66,4.5-.73,9.04-1.22,13.55-1.89,1.83-.27,3.61-1.01,5.43-1.14,.69-.05,1.45,1.03,2.19,1.59-.56,.65-1.05,1.78-1.69,1.86-6.47,.91-12.97,1.65-20.01,2.5Z"/>
      <path class="cls-1" d="M106.53,208.11c-3.75-1.77-7.43-3.42-11.02-5.22-1.65-.83-3.24-1.85-4.68-3.01-.58-.47-.67-1.53-.99-2.33,.82-.19,2.02-.83,2.41-.5,4.49,3.75,10.23,4.91,15.23,7.57,.57,.31,1.36,1.34,1.22,1.64-.31,.65-1.16,1.05-2.16,1.85Z"/>
      <path class="cls-1" d="M137.29,365.78c1.06,.19,2.28,.41,4.05,.73,0,4.68,.09,9.33-.09,13.97-.03,.78-1.11,1.77-1.94,2.17-.38,.18-1.92-.85-1.93-1.36-.15-5.12-.09-10.25-.09-15.51Z"/>
      <path class="cls-1" d="M290.8,189.07c-.45-.28-1.19-.55-1.18-.78,.04-.71,.15-1.64,.62-2.07,2.37-2.21,4.83-4.32,7.32-6.4,1.52-1.26,3.07-2.53,4.78-3.51,.57-.33,1.71,.13,2.47,.49,.16,.07,.04,1.56-.36,1.9-3.86,3.23-7.79,6.36-11.74,9.48-.52,.41-1.23,.58-1.91,.89Z"/>
      <path class="cls-1" d="M130.88,398.51c-4.13,4.06-7.79,7.23-13.23,7.25-1.14-3.59-.29-5.67,2.97-6.54,3.03-.8,6.08-2.31,10.26-.71Z"/>
      <path class="cls-1" d="M298.73,382.6c-3.09,.77-3.98-.29-3.84-3.11,.19-3.85-.15-7.73,0-11.58,.03-.79,1.23-1.53,1.89-2.29,.65,.67,1.83,1.32,1.85,2.01,.16,4.93,.09,9.87,.09,14.96Z"/>
      <path class="cls-1" d="M277.25,176.9c-.1-1.55-.62-2.88-.17-3.53,2.48-3.54,5.17-6.93,7.85-10.33,.71-.91,1.53-1.81,2.48-2.41,.49-.31,1.54-.16,2.08,.18,.31,.2,.37,1.43,.06,1.82-3.46,4.42-7.01,8.76-10.56,13.11-.23,.28-.63,.43-1.74,1.15Z"/>
      <path class="cls-1" d="M103.72,178.07c1.72-1.93,3.01-2.24,4.78-.69,3.25,2.85,6.74,5.43,10,8.28,.67,.58,.78,1.81,1.15,2.74-.91,.03-2.1,.45-2.67,.02-4.45-3.33-8.78-6.82-13.26-10.35Z"/>
      <path class="cls-1" d="M292.23,408.82c-6.76-1.22-11.32-5.76-15.89-10.29,7.39,.22,11.1,6.08,15.89,10.29Z"/>
      <path class="cls-1" d="M141.33,154.89c.8,.48,1.86,.78,2.34,1.48,2.48,3.56,4.83,7.21,7.14,10.89,.26,.42,.16,1.46-.18,1.75-.41,.35-1.32,.44-1.86,.23-.58-.22-1.13-.83-1.46-1.4-2.29-3.99-4.52-8.01-6.77-12.03,.26-.31,.53-.62,.79-.92Z"/>
      <path class="cls-1" d="M318.66,217.59c.78,.48,1.47,.91,2.16,1.33-.5,.59-.89,1.43-1.52,1.71-2.94,1.29-5.92,2.5-8.96,3.54-.71,.24-1.69-.29-2.55-.47,.39-1,.52-2.62,1.2-2.9,3.08-1.26,6.32-2.14,9.67-3.21Z"/>
      <path class="cls-1" d="M319.92,238.75c-1.18,.06-2.37,.23-3.54,.15-.56-.04-1.09-.53-1.64-.81,.36-.61,.65-1.7,1.07-1.76,3.8-.47,7.61-.81,11.44-1.02,.4-.02,1.21,1.06,1.18,1.6-.02,.49-.87,1.28-1.44,1.36-2.34,.33-4.71,.43-7.06,.62,0-.05,0-.09-.01-.14Z"/>
      <path class="cls-1" d="M322.08,219.18c.74-.87,1.32-2.13,2.26-2.52,2.35-.99,4.84-1.7,7.33-2.26,.58-.13,1.95,.75,1.99,1.24,.07,.8-.51,2.26-1.08,2.41-3.21,.84-6.5,1.36-9.77,2-.24-.29-.49-.58-.73-.87Z"/>
      <path class="cls-1" d="M331.76,235.73c3.01-.2,6.01-.52,9.02-.51,.65,0,1.28,1.24,1.93,1.91-.68,.57-1.36,1.61-2.05,1.62-2.44,.04-4.9-.17-7.33-.51-.71-.1-1.31-.94-1.97-1.45l.41-1.06Z"/>
      <path class="cls-1" d="M260.22,407.09c-4.76,.87-4.87-3.26-6.7-5.39,2.75-1.76,4.71-.23,6.7,5.39Z"/>
      <path class="cls-1" d="M239.07,406.17c-3.16-.33-5.66-4.36-4.45-6.03,.23-.32,1.99-.14,2.19,.24,.87,1.68,1.42,3.52,2.26,5.78Z"/>
      <path class="cls-1" d="M80.1,431.27c0-3.16,1.87-5.35,4.63-5.41,3.18-.07,6.17,2.63,6.14,5.56-.03,3.32-2.23,5.59-5.5,5.66-3.07,.07-5.26-2.34-5.27-5.81Z"/>
      <path class="cls-1" d="M264.32,464.05c.98,1.91,2.17,3.52,1.9,3.82-1.09,1.2-2.57,2.12-4.06,2.82-.2,.09-2-2.08-1.78-2.44,.81-1.35,2.14-2.38,3.94-4.2Z"/>
      <path class="cls-1" d="M248.6,478.56h-4.82c.39-1.42,.74-2.73,1.1-4.03l.87-.21c.85,1.26,1.69,2.51,2.86,4.24Z"/>
      <path class="cls-1" d="M134.96,109.67c1.03-.63,2.02-1.38,3.11-1.88,10.84-5.02,21.68-10.05,32.56-14.99,7.55-3.42,15.17-6.69,22.75-10.06,1.7-.75,3.58-1.32,4.99-2.46,5.09-4.13,9.63-.92,14.25,.86,2.37,.91,4.59,2.2,6.93,3.22,8.96,3.91,17.96,7.73,26.88,11.71,.87,.39,1.86,1.61,1.92,2.5,.46,6.82,.69,13.66,1,20.49,.11,2.39-1.9,2-3.15,2.18-.71,.1-2.08-.71-2.27-1.35-.83-2.94-1.19-6.01-2.04-8.95-.32-1.09-1.37-2.6-2.31-2.79-8.32-1.65-16.64-3.42-25.06-4.36-4.54-.51-9.29,.31-13.9,.93-8.14,1.11-16.25,2.53-24.36,3.85-1.44,.23-2.87,.62-4.3,1.28,8.29,3.73,17.28,2.79,25.91,3.84,8.64,1.05,17.43,.9,26.85,1.31-3.8,4.32-10.24,3.62-13.66,7.57,.13,.31,.27,.61,.4,.92,4.38-.6,8.76-1.2,13.13-1.8,.06,.34,.12,.67,.18,1.01-4.5,1.9-9,3.8-13.51,5.71,.11,.31,.22,.61,.33,.92,3.51-.62,7.03-1.24,10.54-1.86,.04,.18,.08,.37,.13,.55l-5.76,1.49c.02,.11,.03,.22,.05,.33,3.6-.27,7.2-.54,10.79-.81-6.16,4.01-13.08,6.32-19,10.36,.17,.34,.34,.67,.51,1.01,6.6-1.4,13.2-2.8,19.8-4.19,.08,.23,.17,.46,.25,.7-6.95,2.81-14.47,4.57-20.27,10.77,9.71-2.52,18.87-4.9,28.03-7.28-.74-8.35-1.5-16.95-2.26-25.56,.33-.06,.66-.13,.99-.19,.26,.34,.68,.65,.76,1.03,1.8,8.53,3.56,17.08,5.35,25.61,.58,2.74-.4,3.38-3.21,3.58-4.2,.3-8.48,1.1-12.45,2.48-6.89,2.39-13.55,5.42-20.35,8.05-.81,.31-2.12,.11-2.9-.36-8.86-5.28-18.31-8.81-28.59-10-2.24-.26-4.51-.32-7.17-.5,.78-5.02,1.53-9.86,2.3-14.7,.66-4.11,1.41-8.2,1.99-12.32,.17-1.25,.73-2.83-1.39-3.33-2.01-.48-2.67,.76-3.21,2.23-.24,.65-.42,1.32-.56,2-.69,3.54-1.25,3.92-4.73,2.47-7.38-3.07-14.71-6.28-22.08-9.36-1.25-.52-2.63-.7-3.96-1.04-.1-.27-.19-.55-.29-.82Z"/>
      <path class="cls-1" d="M255.29,117.46c-.43-6.08-.84-11.9-1.29-18.23,6.69,3.39,12.95,6.55,19.21,9.72,.01,.32,.03,.65,.04,.97-5.97,2.51-11.95,5.01-17.97,7.54Z"/>
      <path class="cls-1" d="M254.54,160.7c-4.55-5.33-4.96-11.39-6.35-17.57,2.08-.18,3.88-.33,4.98-.43,2.53,5.88,4.87,11.33,7.49,17.45-1.8-1.36-3.19-2.41-4.79-3.62-.4,1.26-.74,2.32-1.33,4.17Z"/>
      <path class="cls-1" d="M249.95,136.08c-3.18,.04-5.54-3.07-4.27-5.86,.35-.77,1.6-1.33,2.53-1.52,.39-.08,1.35,.97,1.5,1.62,.36,1.62,.41,3.31,.54,4.97,.02,.26-.2,.53-.31,.79Z"/>
    </g>
  </g>
</svg>